<?xml version="1.0" encoding="UTF-8" standalone="no"?>
<svg
   version="1.1"
   viewBox="0 0 1496.9211 1728.5469"
   id="svg161"
   sodipodi:docname="vecvec.svg"
   xml:space="preserve"
   inkscape:version="1.4.2 (1:1.4.2+202505120737+ebf0e940d0)"
   width="1496.9211"
   height="1728.5469"
   inkscape:export-filename="vecvec.png"
   inkscape:export-xdpi="39.248562"
   inkscape:export-ydpi="39.248562"
   xmlns:inkscape="http://www.inkscape.org/namespaces/inkscape"
   xmlns:sodipodi="http://sodipodi.sourceforge.net/DTD/sodipodi-0.dtd"
   xmlns="http://www.w3.org/2000/svg"
   xmlns:svg="http://www.w3.org/2000/svg"><defs
     id="defs161"><linearGradient
       id="gradient_1_"
       gradientUnits="userSpaceOnUse"
       x1="305.6709"
       y1="404.72559"
       x2="305.6709"
       y2="134.4175"
       gradientTransform="matrix(2.4466131,0,0,2.4466131,-0.20306889,-298.78772)"><stop
         offset="0"
         style="stop-color:#FFFFFF;stop-opacity:0"
         id="stop1" /><stop
         offset="1"
         style="stop-color:#FFFFFF"
         id="stop2" /></linearGradient></defs><sodipodi:namedview
     id="namedview161"
     pagecolor="#ffffff"
     bordercolor="#000000"
     borderopacity="0.25"
     inkscape:showpageshadow="2"
     inkscape:pageopacity="0.0"
     inkscape:pagecheckerboard="0"
     inkscape:deskcolor="#d1d1d1"
     inkscape:zoom="0.45373141"
     inkscape:cx="730.60845"
     inkscape:cy="854.02948"
     inkscape:window-width="1920"
     inkscape:window-height="1052"
     inkscape:window-x="0"
     inkscape:window-y="0"
     inkscape:window-maximized="1"
     inkscape:current-layer="svg161" /><polygon
     id="fill"
     fill="#e1f0fb"
     points="611.917,572.024 306,748.629 0.083,572.021 0.083,218.728 306,42.123 611.917,218.728 "
     transform="matrix(2.4466131,0,0,2.4466131,-0.20306889,-103.05868)"
     style="fill:#223069;fill-opacity:1" /><path
     id="gradient"
     opacity="0.2"
     fill="url(#gradient_1_)"
     d="M 747.45993,30.078666 144.68543,379.04155 c 90.4733,182.35831 326.1139,312.37623 602.5518,312.37623 277.28937,0 513.53187,-130.82041 603.38617,-314.06194 z"
     style="display:inline;fill:url(#gradient_1_);stroke-width:2.44661" /><path
     id="outline"
     fill="#ec6b00"
     d="M 1437.2311,397.65538 871.30263,70.893066 748.461,6.3887001e-6 625.61863,70.893066 59.690031,397.65538 3.11127e-5,432.08412 V 1296.4554 L 59.687631,1330.8817 632.54253,1661.725 l 115.9181,66.8219 115.9156,-66.8219 572.85487,-330.836 59.69,-34.4238 V 432.08412 Z m 0,866.41172 L 748.46063,1661.725 59.690031,1264.0671 V 468.55089 L 748.46063,70.893066 v 0 L 1437.2311,468.55089 Z"
     style="fill:#15173f;fill-opacity:1;stroke-width:2.44661"
     sodipodi:nodetypes="ccccccccccccccccccccccc" /><g
     id="g165"
     transform="matrix(2.1644723,0,0,2.1644723,-754.13623,59.09965)"><g
       id="g162"
       transform="translate(185.6056,-670.69811)"><path
         style="fill:none;stroke:#85e4ff;stroke-width:3;stroke-linejoin:round;stroke-dasharray:none;stroke-dashoffset:36.474;stroke-opacity:1"
         d="m 508.6037,939.81518 -300,181.00002 300,181 300,-181 z"
         id="path161"
         sodipodi:nodetypes="ccccc" /><path
         id="path162"
         style="fill:none;stroke:#85e4ff;stroke-width:3;stroke-linejoin:round;stroke-dasharray:none;stroke-dashoffset:36.474;stroke-opacity:1"
         d="M 220.78534,1120.8152 C 316.72479,1178.6876 412.66425,1236.56 508.6037,1294.4324 604.54315,1236.56 700.48261,1178.6876 796.42206,1120.8152 700.48261,1062.9428 604.54315,1005.0704 508.6037,947.19799 412.66425,1005.0704 316.72479,1062.9428 220.78534,1120.8152 Z" /></g><g
       id="g164"
       transform="translate(185.6056,-586.69811)"><path
         style="fill:none;stroke:#85e4ff;stroke-width:3;stroke-linejoin:round;stroke-dasharray:none;stroke-dashoffset:36.474;stroke-opacity:1"
         d="m 508.6037,939.81518 -300,181.00002 300,181 300,-181 z"
         id="path163"
         sodipodi:nodetypes="ccccc" /><path
         id="path164"
         style="fill:none;stroke:#85e4ff;stroke-width:3;stroke-linejoin:round;stroke-dasharray:none;stroke-dashoffset:36.474;stroke-opacity:1"
         d="M 220.78534,1120.8152 C 316.72479,1178.6876 412.66425,1236.56 508.6037,1294.4324 604.54315,1236.56 700.48261,1178.6876 796.42206,1120.8152 700.48261,1062.9428 604.54315,1005.0704 508.6037,947.19799 412.66425,1005.0704 316.72479,1062.9428 220.78534,1120.8152 Z" /></g></g><text
     xml:space="preserve"
     style="font-size:240px;font-family:Monospace;-inkscape-font-specification:Monospace;text-align:center;writing-mode:lr-tb;direction:ltr;text-anchor:middle;fill:#223069;fill-opacity:1;stroke:#85e4ff;stroke-width:6;stroke-linejoin:round;stroke-dasharray:none;stroke-dashoffset:36.474;stroke-opacity:1"
     x="1292.6611"
     y="143.06258"
     id="text165"
     transform="rotate(30.457068)"><tspan
       sodipodi:role="line"
       id="tspan165"
       x="1292.6611"
       y="143.06258">vec</tspan></text><text
     xml:space="preserve"
     style="font-size:240px;font-family:Monospace;-inkscape-font-specification:Monospace;text-align:center;writing-mode:lr-tb;direction:ltr;text-anchor:middle;fill:#223069;fill-opacity:1;stroke:#85e4ff;stroke-width:6;stroke-linejoin:round;stroke-dasharray:none;stroke-dashoffset:36.474;stroke-opacity:1"
     x="-21.779036"
     y="898.14148"
     id="text166"
     transform="rotate(-31.864139)"><tspan
       sodipodi:role="line"
       id="tspan166"
       x="-21.779036"
       y="898.14148">vec</tspan></text></svg>
